<?xml version="1.0" encoding="utf-8"?>
<!-- Generator: Adobe Illustrator 27.0.0, SVG Export Plug-In . SVG Version: 6.00 Build 0)  -->
<svg version="1.1" id="Camada_1" xmlns="http://www.w3.org/2000/svg" xmlns:xlink="http://www.w3.org/1999/xlink" x="0px" y="0px"
	 viewBox="0 0 554.5 215.6" style="enable-background:new 0 0 554.5 215.6;" xml:space="preserve">
<style type="text/css">
	.st0{fill:#F8B707;}
	.st1{font-family:'WesternBangBang';}
	.st2{font-size:142.3293px;}
	.st3{font-size:102.4028px;}
</style>
<g>
	<g>
		<g>
			<path d="M157.5,45.3c1.6,0.3,3.3,0.5,4.9,0.7c0.6,0.1,1.4,0.5,1.7-0.2c0.4-0.8-0.6-1-1-1.3c-1.9-1.2-3.2-2.9-4.2-4.9
				c-1.3-2.6-1.6-5.6-3.2-8.1c-1.1-1.6-1.1-1.9-2.6-0.7c-0.5-0.9-0.1-2.3-1.3-2.8c-1-0.3-1,0.9-1.5,1.3c-0.3-0.4-0.4-1-0.5-1.4
				c-0.3-0.7-0.2-2-1.4-1.9c-1.2,0.1-1,1.2-1.1,2c0,0.1-0.1,0.1-0.2,0.2c-0.9-0.3-1.6-1.8-2.6-0.9c-1.1,1-0.1,2.2,0.4,3.1
				c0.7,1.2,0.5,1.6-0.8,1.9c-2.5,0.5-4.7,1.5-6.4,3.4c-2,2.3-4.1,4.4-6.4,6.4c-3,2.6-5.1,5.8-6.2,9.7c-1.6,5.7-3.2,11.4-4.8,17.1
				c-1.1,3.8-2.4,7.5-5.8,10c-4.7,3.5-10.1,4.8-15.8,5.5c-7.1,0.9-14.1,0.5-21.2,0.1c-3.9-0.2-6.5-2.1-8.2-5.4
				c-3.2-6.1-5.6-12.5-8.3-18.7c-3.2-7.3-5.9-14.9-9.8-21.9c-0.4-0.7-0.7-1.5-1.6-1.7c-1-0.2-1.3,0.8-1.7,1.4
				c-1-1.3-1.7-2.5-2.7-3.5c-3.6-3.5-7.6-2.8-9.3,2c-0.9,2.5-2.1,3.9-4.7,4.4c-2.6,0.5-4.3,2.1-4.4,5.1c-0.1,2.2-0.6,4.3-2,6.1
				c-1.5,1.8-2.1,3.8-1.6,6c0.6,2.3-0.2,4.1-1.4,5.9C18.3,69.3,16,75,14.7,81c-0.7,3.2-1.4,6.6,0.2,9.6c1.8,3.3,1.6,6.5,0.8,9.9
				c-3.1,12.6-0.4,24.4,6.2,35.1c5.9,9.4,14.6,15.9,24.9,20.1c4.5,1.8,9.2,2.9,14,1.9c2.6-0.6,4.5,0,6.3,1.7
				c1.4,1.3,2.8,2.6,4.2,3.8c3,2.6,6,5.3,9.9,6.3c3.5,1,5.1,3.1,5.4,6.5c0,0.1,0,0.1,0.1,0.2c0.5,1.2,0.1,2-1,2.6
				c-1.4,0.8-2.8,1.6-4.1,2.5c-0.9,0.6-2.2,1.2-1.6,2.5c0.6,1.2,1.7,0.3,2.6,0.1c2.7-0.7,5.4-0.8,7.4,1.1c1.7,1.6,3.4,2.5,5.6,3
				c1.4,0.3,2.8,0.7,4.1,1.2c1.3,0.5,2.6,1.2,3.3,2.6c0.7,1.4,1.4,1.5,2.5,0.5c1-1,1.2-2.4,0.3-3.5c-0.5-0.7-1.1-1.3-1.8-2
				c2.6,0.1,4.9,0.2,7.2,0.6c1.2,0.2,2.4,0.6,3.8,0.9c-1.5,1.7-3.3,2.5-4.8,3.8c-0.8,0.7-2,1.5-1.3,2.6c0.7,1.1,1.7,0.1,2.6-0.2
				c0.3-0.1,0.5-0.2,0.8-0.3c2.3-0.5,4.7-0.9,6.6,0.7c2,1.7,4.1,2.2,6.5,2.6c3,0.4,6.2,0.7,7.8,4c0.2,0,0.5,0,0.7,0
				c2.7-1.8,2.5-3.2-0.9-6.2c0.4,0,0.6-0.1,0.9-0.1c4-0.2,8-0.1,11.9,1c0.4,0.1,1.1,0.4,1.4-0.2c0.3-0.5-0.2-1-0.5-1.3
				c-1-1.2-2.3-1.9-3.6-2.5c-3.4-1.5-7.1-1.4-10.8-1.9c0.2-0.1,0.4-0.2,0.5-0.3c0.4-0.3,1.2-0.1,1.2-0.8c0-0.6-0.8-0.6-1.2-0.7
				c-1.8-0.5-3.7-0.8-5.6-0.4c-1.4,0.3-2.1-0.2-2.7-1.4c-3-5.8-5.5-11.8-8.3-17.6c-0.4-0.8,0-1,0.6-1.3c3.4-1.6,7.2-2.2,10.6-3.7
				c18.9-8.4,30.8-22.7,35-43c2.2-10.3,2.2-20.8,1.3-31.2c-0.7-7.2-2.2-14.2-5.7-20.6c-1.6-3-3.1-6-3.7-9.3
				c-0.3-1.7-0.7-3.6,0.3-5.2c1.7-2.7,2.5-5.5,2.3-8.6C156.6,45.4,156.8,45.2,157.5,45.3z M104.3,181.6c-0.1-0.3,0.1-0.5,0.3-0.6
				c1.3-0.4,0.8-0.9,0-1.2c-1.9-0.8-3.8-1.3-5.8-1c-1.5,0.2-2.2-0.3-2.7-1.6c-0.6-1.6-1.2-3.2-1.9-5c3.1-0.1,6.1-0.2,9.1-0.8
				c1.3-0.3,2.6-0.4,3.8-0.8c1-0.3,1.5-0.1,1.9,0.9c1.6,4.1,3.2,8.2,4.9,12.5C110.6,182.7,107.4,182.3,104.3,181.6z"/>
			<path d="M104.6,181.1c-0.1,0.2-0.2,0.4-0.3,0.6c-0.3,0.1-0.7,0.1-0.6-0.3C103.8,180.8,104.2,181,104.6,181.1z"/>
		</g>
	</g>
	<text transform="matrix(1 0 0 1 204.8518 182.3279)" class="st0 st1 st2">Chicken</text>
	<text transform="matrix(0.9979 -6.534000e-02 6.534000e-02 0.9979 370.0342 101.9519)" class="st1 st3">Steen</text>
</g>
</svg>
