<?xml version="1.0" encoding="utf-8"?>
<!-- Generator: Adobe Illustrator 27.0.0, SVG Export Plug-In . SVG Version: 6.00 Build 0)  -->
<svg version="1.1" id="Camada_1" xmlns="http://www.w3.org/2000/svg" xmlns:xlink="http://www.w3.org/1999/xlink" x="0px" y="0px"
	 viewBox="0 0 48 48" style="enable-background:new 0 0 48 48;" xml:space="preserve">
<style type="text/css">
	.st0{fill:#F8B707;}
</style>
<g>
	<g>
		<path class="st0" d="M41,7c0.4,0.1,0.8,0.1,1.2,0.2c0.1,0,0.3,0.1,0.4-0.1c0.1-0.2-0.1-0.3-0.3-0.3c-0.5-0.3-0.8-0.7-1-1.2
			c-0.3-0.7-0.4-1.4-0.8-2c-0.3-0.4-0.3-0.5-0.6-0.2c-0.1-0.2,0-0.6-0.3-0.7c-0.2-0.1-0.2,0.2-0.4,0.3c-0.1-0.1-0.1-0.2-0.1-0.4
			c-0.1-0.2-0.1-0.5-0.3-0.5c-0.3,0-0.2,0.3-0.3,0.5c0,0,0,0-0.1,0.1c-0.2-0.1-0.4-0.4-0.7-0.2c-0.3,0.2,0,0.5,0.1,0.8
			c0.2,0.3,0.1,0.4-0.2,0.5c-0.6,0.1-1.2,0.4-1.6,0.9c-0.5,0.6-1,1.1-1.6,1.6c-0.7,0.7-1.3,1.4-1.5,2.4c-0.4,1.4-0.8,2.8-1.2,4.3
			c-0.3,1-0.6,1.9-1.4,2.5c-1.2,0.9-2.5,1.2-3.9,1.4c-1.8,0.2-3.5,0.1-5.3,0c-1-0.1-1.6-0.5-2-1.4c-0.8-1.5-1.4-3.1-2.1-4.7
			c-0.8-1.8-1.5-3.7-2.4-5.5c-0.1-0.2-0.2-0.4-0.4-0.4c-0.3-0.1-0.3,0.2-0.4,0.3c-0.2-0.3-0.4-0.6-0.7-0.9c-0.9-0.9-1.9-0.7-2.3,0.5
			c-0.2,0.6-0.5,1-1.2,1.1C8.9,6.1,8.5,6.5,8.5,7.2c0,0.5-0.1,1.1-0.5,1.5c-0.4,0.4-0.5,0.9-0.4,1.5c0.1,0.6-0.1,1-0.4,1.5
			c-0.8,1.3-1.4,2.7-1.7,4.2c-0.2,0.8-0.3,1.6,0.1,2.4c0.4,0.8,0.4,1.6,0.2,2.5c-0.8,3.1-0.1,6.1,1.6,8.7c1.5,2.3,3.6,4,6.2,5
			c1.1,0.5,2.3,0.7,3.5,0.5c0.7-0.1,1.1,0,1.6,0.4c0.3,0.3,0.7,0.6,1,0.9c0.7,0.6,1.5,1.3,2.5,1.6c0.9,0.2,1.3,0.8,1.4,1.6
			c0,0,0,0,0,0c0.1,0.3,0,0.5-0.2,0.6c-0.3,0.2-0.7,0.4-1,0.6c-0.2,0.1-0.5,0.3-0.4,0.6c0.1,0.3,0.4,0.1,0.6,0
			c0.7-0.2,1.3-0.2,1.8,0.3c0.4,0.4,0.9,0.6,1.4,0.7c0.3,0.1,0.7,0.2,1,0.3c0.3,0.1,0.6,0.3,0.8,0.6c0.2,0.3,0.3,0.4,0.6,0.1
			c0.3-0.2,0.3-0.6,0.1-0.9c-0.1-0.2-0.3-0.3-0.5-0.5c0.6,0,1.2,0,1.8,0.2c0.3,0.1,0.6,0.1,0.9,0.2c-0.4,0.4-0.8,0.6-1.2,1
			c-0.2,0.2-0.5,0.4-0.3,0.7c0.2,0.3,0.4,0,0.6,0c0.1,0,0.1-0.1,0.2-0.1c0.6-0.1,1.2-0.2,1.6,0.2c0.5,0.4,1,0.6,1.6,0.6
			c0.8,0.1,1.5,0.2,1.9,1c0.1,0,0.1,0,0.2,0c0.7-0.5,0.6-0.8-0.2-1.5c0.1,0,0.2,0,0.2,0c1,0,2,0,3,0.3c0.1,0,0.3,0.1,0.3,0
			c0.1-0.1-0.1-0.2-0.1-0.3c-0.2-0.3-0.6-0.5-0.9-0.6c-0.8-0.4-1.8-0.3-2.7-0.5c0.1,0,0.1,0,0.1-0.1c0.1-0.1,0.3,0,0.3-0.2
			c0-0.2-0.2-0.1-0.3-0.2c-0.5-0.1-0.9-0.2-1.4-0.1c-0.4,0.1-0.5-0.1-0.7-0.3c-0.7-1.4-1.4-2.9-2.1-4.4c-0.1-0.2,0-0.3,0.1-0.3
			c0.8-0.4,1.8-0.5,2.6-0.9c4.7-2.1,7.7-5.7,8.7-10.7c0.5-2.6,0.6-5.2,0.3-7.8c-0.2-1.8-0.5-3.5-1.4-5.1c-0.4-0.7-0.8-1.5-0.9-2.3
			c-0.1-0.4-0.2-0.9,0.1-1.3c0.4-0.7,0.6-1.4,0.6-2.1C40.8,7,40.9,7,41,7z M27.8,40.9c0-0.1,0-0.1,0.1-0.1c0.3-0.1,0.2-0.2,0-0.3
			c-0.5-0.2-0.9-0.3-1.4-0.3c-0.4,0.1-0.5-0.1-0.7-0.4c-0.1-0.4-0.3-0.8-0.5-1.2c0.8,0,1.5,0,2.3-0.2c0.3-0.1,0.6-0.1,1-0.2
			c0.3-0.1,0.4,0,0.5,0.2c0.4,1,0.8,2,1.2,3.1C29.4,41.2,28.6,41.1,27.8,40.9z"/>
		<path class="st0" d="M27.9,40.8c0,0-0.1,0.1-0.1,0.1c-0.1,0-0.2,0-0.2-0.1C27.7,40.7,27.8,40.8,27.9,40.8z"/>
	</g>
</g>
</svg>
